<svg xmlns="http://www.w3.org/2000/svg" viewBox="0 0 20.87 19.77"><defs><style>.cls-1{fill:#727c8e;}</style></defs><title>AccueilPassif</title><g id="Calque_2" data-name="Calque 2"><g id="Calque_1-2" data-name="Calque 1"><path class="cls-1" d="M20.53,8.43,11.18.25a1,1,0,0,0-1.31,0L.35,8.43A1,1,0,0,0,1.65,10l.09-.08v8.9a1,1,0,0,0,1,1H18.16a1,1,0,0,0,1-1V9.89l.05,0a1,1,0,0,0,1.32-1.51Zm-8.47,9.34H9V12.7h3.09Zm5.1,0h-3.1V11.7a1,1,0,0,0-1-1H8a1,1,0,0,0-1,1v6.07H3.74V8.15l6.78-5.83,6.64,5.82Z"/></g></g></svg>