<svg xmlns="http://www.w3.org/2000/svg" viewBox="0 0 15.9 18.96"><defs><style>.cls-1{fill:#727c8e;}</style></defs><title>DefiPassif</title><g id="Calque_2" data-name="Calque 2"><g id="Calque_1-2" data-name="Calque 1"><path class="cls-1" d="M15.71,17.38,9,7.83v-2L12.15,4a1,1,0,0,0,.5-.87,1,1,0,0,0-.5-.86L8.51.17l-.06,0a.15.15,0,0,0-.07,0,.13.13,0,0,0-.08,0,.44.44,0,0,0-.15,0h0L8,0,7.76,0h0A.44.44,0,0,0,7.6.07a.13.13,0,0,0-.08,0,.15.15,0,0,0-.07,0l0,0a1.07,1.07,0,0,0-.3.3L7.05.57A.13.13,0,0,0,7,.65.5.5,0,0,0,7,.78,1.5,1.5,0,0,0,7,1V7.83L.18,17.38a1,1,0,0,0-.07,1A1,1,0,0,0,1,19H14.9a1,1,0,0,0,.88-.54A1,1,0,0,0,15.71,17.38ZM9,2.73l.7.4L9,3.54ZM8.36,17H2.94l4-5.67L8,9.88l1,1.41L13,17Z"/></g></g></svg>