<svg xmlns="http://www.w3.org/2000/svg" viewBox="0 0 24.32 25"><defs><style>.cls-1{fill:#fff;}</style></defs><title>Options</title><g id="Calque_2" data-name="Calque 2"><g id="Calque_1-2" data-name="Calque 1"><path class="cls-1" d="M12.16,16.88a4.38,4.38,0,1,1,4.38-4.38A4.38,4.38,0,0,1,12.16,16.88Zm9.29-3.16a9.59,9.59,0,0,0,.09-1.22,9.59,9.59,0,0,0-.09-1.22l2.64-2.07a.64.64,0,0,0,.15-.8l-2.5-4.32A.63.63,0,0,0,21,3.81L17.86,5.06a9.06,9.06,0,0,0-2.11-1.22L15.27.53A.6.6,0,0,0,14.66,0h-5a.61.61,0,0,0-.61.53L8.57,3.84A9.83,9.83,0,0,0,6.46,5.06L3.35,3.81a.61.61,0,0,0-.76.28L.09,8.41a.6.6,0,0,0,.15.8l2.63,2.07a9.34,9.34,0,0,0,0,2.44L.24,15.79a.62.62,0,0,0-.15.8l2.5,4.32a.62.62,0,0,0,.76.28l3.11-1.25a9.06,9.06,0,0,0,2.11,1.22l.48,3.31a.61.61,0,0,0,.61.53h5a.6.6,0,0,0,.61-.53l.48-3.31a9.83,9.83,0,0,0,2.11-1.22L21,21.19a.62.62,0,0,0,.77-.28l2.5-4.32a.64.64,0,0,0-.15-.8Z"/></g></g></svg>