<svg xmlns="http://www.w3.org/2000/svg" viewBox="0 0 18.33 17.36"><defs><style>.cls-1{fill:#ff6969;}</style></defs><title>ProfilActif</title><g id="Calque_2" data-name="Calque 2"><g id="Calque_1-2" data-name="Calque 1"><path class="cls-1" d="M3.92,6.4a5,5,0,0,1,0-2.09,5,5,0,0,1,.3-1,4.63,4.63,0,0,1,.5-.93,5.08,5.08,0,0,1,.66-.81A5.77,5.77,0,0,1,6.19.9,5.15,5.15,0,0,1,7.12.41a5,5,0,0,1,1-.31A6.12,6.12,0,0,1,9.17,0a6,6,0,0,1,1,.1,4.84,4.84,0,0,1,1,.31,5.15,5.15,0,0,1,.93.49,5.58,5.58,0,0,1,1.48,1.48,5.15,5.15,0,0,1,.49.93,5,5,0,0,1,.31,1,5.51,5.51,0,0,1,0,2.09,5,5,0,0,1-.31,1,5.15,5.15,0,0,1-.49.93l-.32.42L13.05,9a.53.53,0,0,1-.1.12,5.77,5.77,0,0,1-.81.67,5.15,5.15,0,0,1-.93.49,4.84,4.84,0,0,1-1,.31,6,6,0,0,1-1,.1,6.12,6.12,0,0,1-1.05-.1,5,5,0,0,1-1-.31,5.15,5.15,0,0,1-.93-.49,5.77,5.77,0,0,1-.81-.67A.53.53,0,0,1,5.28,9L5,8.69a4.22,4.22,0,0,1-.27-.36,4.63,4.63,0,0,1-.5-.93A5,5,0,0,1,3.92,6.4Z"/><path class="cls-1" d="M17.44,17.36H.89a.89.89,0,0,1-.88-1A9.18,9.18,0,0,1,4,9.79a4.72,4.72,0,0,0,.37.41,7,7,0,0,0,1,.85,6.74,6.74,0,0,0,1.18.64,7.37,7.37,0,0,0,1.29.39,7.51,7.51,0,0,0,1.34.13,7.49,7.49,0,0,0,1.33-.13,7.12,7.12,0,0,0,1.29-.39A6.74,6.74,0,0,0,13,11.05a6.12,6.12,0,0,0,1-.85c.13-.13.26-.27.38-.41a9.21,9.21,0,0,1,3.94,6.57A.91.91,0,0,1,17.44,17.36Z"/></g></g></svg>