<svg xmlns="http://www.w3.org/2000/svg" viewBox="0 0 20 18"><defs><style>.cls-1{fill:#aeb3be;}</style></defs><title>Sport</title><g id="Calque_2" data-name="Calque 2"><g id="Calque_1-2" data-name="Calque 1"><path class="cls-1" d="M6.67,9a1.8,1.8,0,0,0,1.15-.36A3.89,3.89,0,0,1,10,8a3.83,3.83,0,0,1,2.18.64A1.88,1.88,0,0,0,13.34,9a1.82,1.82,0,0,0,1.15-.36l.41-.23L8.48,2C6.93.45,5.5,0,3,0V2.5A4.92,4.92,0,0,1,7,4L8,5,4.75,8.25a5.47,5.47,0,0,1,.77.39A1.8,1.8,0,0,0,6.67,9ZM20,13.5a3.83,3.83,0,0,1-2.18-.64,1.88,1.88,0,0,0-1.15-.36,1.8,1.8,0,0,0-1.15.36,4,4,0,0,1-4.36,0A1.88,1.88,0,0,0,10,12.5a1.8,1.8,0,0,0-1.15.36,3.83,3.83,0,0,1-2.18.64,3.83,3.83,0,0,1-2.18-.64,1.88,1.88,0,0,0-1.15-.36,1.82,1.82,0,0,0-1.15.36A4,4,0,0,1,0,13.5v-2a1.8,1.8,0,0,0,1.15-.36,3.83,3.83,0,0,1,2.18-.64,3.83,3.83,0,0,1,2.18.64,1.88,1.88,0,0,0,1.15.36,1.8,1.8,0,0,0,1.15-.36A3.83,3.83,0,0,1,10,10.5a3.83,3.83,0,0,1,2.18.64,1.88,1.88,0,0,0,1.15.36,1.82,1.82,0,0,0,1.15-.36,4,4,0,0,1,4.36,0A1.88,1.88,0,0,0,20,11.5v2ZM20,18a3.83,3.83,0,0,1-2.18-.64A1.88,1.88,0,0,0,16.67,17a1.8,1.8,0,0,0-1.15.36,4,4,0,0,1-4.36,0A1.88,1.88,0,0,0,10,17a1.8,1.8,0,0,0-1.15.36A3.89,3.89,0,0,1,6.67,18a3.83,3.83,0,0,1-2.18-.64A1.82,1.82,0,0,0,3.34,17a1.82,1.82,0,0,0-1.15.36A3.89,3.89,0,0,1,0,18V16a1.8,1.8,0,0,0,1.15-.36A3.89,3.89,0,0,1,3.34,15a3.83,3.83,0,0,1,2.18.64A1.8,1.8,0,0,0,6.67,16a1.8,1.8,0,0,0,1.15-.36A3.89,3.89,0,0,1,10,15a3.83,3.83,0,0,1,2.18.64,1.88,1.88,0,0,0,1.15.36,1.82,1.82,0,0,0,1.15-.36,4,4,0,0,1,4.36,0A1.8,1.8,0,0,0,20,16v2Z"/></g></g></svg>