<svg xmlns="http://www.w3.org/2000/svg" viewBox="0 0 15.89 18.97"><defs><style>.cls-1{fill:#ff6969;}</style></defs><title>DefiActif</title><g id="Calque_2" data-name="Calque 2"><g id="Calque_1-2" data-name="Calque 1"><path class="cls-1" d="M15.71,17.39,9,7.84v-2L12.15,4a1,1,0,0,0,0-1.73L8.45.13,8.37.1l-.08,0A1,1,0,0,0,8,0h0A1,1,0,0,0,7.6.07L7.52.1l-.07,0a1.16,1.16,0,0,0-.21.16h0a1.07,1.07,0,0,0-.19.28L7,.65A1,1,0,0,0,7,1V7.84L.18,17.39a1,1,0,0,0-.07,1A1,1,0,0,0,1,19H14.89a1,1,0,0,0,.82-1.58Z"/></g></g></svg>