<svg xmlns="http://www.w3.org/2000/svg" viewBox="0 0 55 55"><defs><style>.cls-1{fill:#ffc200;}.cls-2{fill:#fff;}</style></defs><title>DefiPlus</title><g id="Calque_2" data-name="Calque 2"><g id="Calque_1-2" data-name="Calque 1"><path class="cls-1" d="M27.5,0c.9,0,1.8,0,2.7.13a26.67,26.67,0,0,1,2.66.4,25.7,25.7,0,0,1,2.62.65c.86.27,1.71.57,2.54.91a26,26,0,0,1,2.44,1.16,25.77,25.77,0,0,1,2.32,1.38c.75.5,1.47,1,2.17,1.61s1.36,1.18,2,1.81,1.24,1.31,1.81,2,1.11,1.42,1.61,2.17a25.77,25.77,0,0,1,1.38,2.32A26,26,0,0,1,52.91,17c.34.83.64,1.68.91,2.54a25.7,25.7,0,0,1,.65,2.62,26.67,26.67,0,0,1,.4,2.66c.09.9.13,1.8.13,2.7s0,1.8-.13,2.7a26.67,26.67,0,0,1-.4,2.66,25.7,25.7,0,0,1-.65,2.62c-.27.86-.57,1.71-.91,2.54a26,26,0,0,1-1.16,2.44,25.77,25.77,0,0,1-1.38,2.32c-.5.75-1,1.47-1.61,2.17S47.58,46.31,47,47s-1.31,1.24-2,1.81-1.42,1.1-2.17,1.61a25.77,25.77,0,0,1-2.32,1.38A26,26,0,0,1,38,52.91c-.83.34-1.68.64-2.54.91a25.7,25.7,0,0,1-2.62.65,26.67,26.67,0,0,1-2.66.4c-.9.09-1.8.13-2.7.13s-1.8,0-2.7-.13a26.67,26.67,0,0,1-2.66-.4,25.7,25.7,0,0,1-2.62-.65c-.86-.27-1.71-.57-2.54-.91a26,26,0,0,1-2.44-1.16,25.77,25.77,0,0,1-2.32-1.38c-.75-.51-1.47-1-2.17-1.61s-1.36-1.18-2-1.81-1.24-1.31-1.81-2-1.11-1.42-1.61-2.17a25.77,25.77,0,0,1-1.38-2.32A26,26,0,0,1,2.09,38c-.34-.83-.64-1.68-.91-2.54a25.7,25.7,0,0,1-.65-2.62,26.67,26.67,0,0,1-.4-2.66C0,29.3,0,28.4,0,27.5s0-1.8.13-2.7a26.67,26.67,0,0,1,.4-2.66,25.7,25.7,0,0,1,.65-2.62c.27-.86.57-1.71.91-2.54a26,26,0,0,1,1.16-2.44,25.77,25.77,0,0,1,1.38-2.32c.5-.75,1-1.47,1.61-2.17s1.18-1.36,1.81-2,1.31-1.24,2-1.81,1.42-1.11,2.17-1.61a25.77,25.77,0,0,1,2.32-1.38A26,26,0,0,1,17,2.09c.83-.34,1.68-.64,2.54-.91A25.7,25.7,0,0,1,22.14.53,26.67,26.67,0,0,1,24.8.13C25.7,0,26.6,0,27.5,0Z"/><path class="cls-2" d="M37.54,26.52H28.48V17.46a1,1,0,0,0-2,0v9.06H17.41a1,1,0,0,0,0,2h9.07v9.07a1,1,0,0,0,2,0V28.52h9.06a1,1,0,0,0,0-2Z"/></g></g></svg>