<svg xmlns="http://www.w3.org/2000/svg" viewBox="0 0 13.87 19.36"><defs><style>.cls-1{fill:#727c8e;}</style></defs><title>JournalPassif</title><g id="Calque_2" data-name="Calque 2"><g id="Calque_1-2" data-name="Calque 1"><path class="cls-1" d="M3.08,15.11h9.63A1.16,1.16,0,0,0,13.87,14V2.55A2.54,2.54,0,0,0,11.35,0H1.15A1.15,1.15,0,0,0,0,1.16V16.23a3.11,3.11,0,0,0,3.08,3.13h9.79a1,1,0,0,0,0-2H3.08A1.11,1.11,0,0,1,2,16.23a1.13,1.13,0,0,1,.32-.8A1.07,1.07,0,0,1,3.08,15.11ZM2,2h9.35a.54.54,0,0,1,.52.55V13.11H3.08A3,3,0,0,0,2,13.3Z"/></g></g></svg>