<svg xmlns="http://www.w3.org/2000/svg" viewBox="0 0 22 22"><defs><style>.cls-1{fill:#ffc200;}.cls-2{fill:#fff;}</style></defs><title>OkIcone</title><g id="Calque_2" data-name="Calque 2"><g id="Calque_1-2" data-name="Calque 1"><path class="cls-1" d="M11,0a11.11,11.11,0,0,1,2.15.21,10.87,10.87,0,0,1,2.06.63,10.48,10.48,0,0,1,1.9,1,11,11,0,0,1,3,3,10.48,10.48,0,0,1,1,1.9,10.87,10.87,0,0,1,.63,2.06,11.11,11.11,0,0,1,0,4.3,10.87,10.87,0,0,1-.63,2.06,10.48,10.48,0,0,1-1,1.9,11,11,0,0,1-3,3,10.48,10.48,0,0,1-1.9,1,10.87,10.87,0,0,1-2.06.63,11.11,11.11,0,0,1-4.3,0,10.87,10.87,0,0,1-2.06-.63,10.48,10.48,0,0,1-1.9-1,11,11,0,0,1-3-3,10.48,10.48,0,0,1-1-1.9,10.87,10.87,0,0,1-.63-2.06,11.11,11.11,0,0,1,0-4.3A10.87,10.87,0,0,1,.84,6.79a10.48,10.48,0,0,1,1-1.9,11,11,0,0,1,3-3,10.48,10.48,0,0,1,1.9-1A10.87,10.87,0,0,1,8.85.21,11.11,11.11,0,0,1,11,0Z"/><polygon class="cls-2" points="10.02 16.19 4.82 11 6.94 8.88 10.02 11.95 15.86 6.1 17.98 8.22 10.02 16.19"/></g></g></svg>