<svg xmlns="http://www.w3.org/2000/svg" viewBox="0 0 16 16"><defs><style>.cls-1{fill:#ffc200;}</style></defs><title>Pastille</title><g id="Calque_2" data-name="Calque 2"><g id="Calque_1-2" data-name="Calque 1"><path class="cls-1" d="M8,0A8.09,8.09,0,0,1,9.56.15a8.41,8.41,0,0,1,1.5.46,7.61,7.61,0,0,1,1.38.74,7.59,7.59,0,0,1,2.21,2.21,7.61,7.61,0,0,1,.74,1.38,8.41,8.41,0,0,1,.46,1.5,8.19,8.19,0,0,1,0,3.12,8.41,8.41,0,0,1-.46,1.5,7.61,7.61,0,0,1-.74,1.38,7.59,7.59,0,0,1-2.21,2.21,7.61,7.61,0,0,1-1.38.74,8.41,8.41,0,0,1-1.5.46,8.19,8.19,0,0,1-3.12,0,8.41,8.41,0,0,1-1.5-.46,7.61,7.61,0,0,1-1.38-.74,7.59,7.59,0,0,1-2.21-2.21,7.61,7.61,0,0,1-.74-1.38,8.41,8.41,0,0,1-.46-1.5,8.19,8.19,0,0,1,0-3.12,8.41,8.41,0,0,1,.46-1.5,7.61,7.61,0,0,1,.74-1.38A7.59,7.59,0,0,1,3.56,1.35,7.61,7.61,0,0,1,4.94.61,8.41,8.41,0,0,1,6.44.15,8.09,8.09,0,0,1,8,0Z"/></g></g></svg>