<svg xmlns="http://www.w3.org/2000/svg" viewBox="0 0 18.43 19.36"><defs><style>.cls-1{fill:#727c8e;}</style></defs><title>ProfilPassif</title><g id="Calque_2" data-name="Calque 2"><g id="Calque_1-2" data-name="Calque 1"><path class="cls-1" d="M14,10.51a7.31,7.31,0,0,0,.48-.62,6.86,6.86,0,0,0,.59-1.1,7.09,7.09,0,0,0,.36-1.19,6.47,6.47,0,0,0,0-2.48,6.82,6.82,0,0,0-.36-1.19,6.46,6.46,0,0,0-.59-1.1,6.12,6.12,0,0,0-.79-1,6,6,0,0,0-1-.79,6.86,6.86,0,0,0-1.1-.59,6.37,6.37,0,0,0-1.2-.36A6,6,0,0,0,8,.13a6.37,6.37,0,0,0-1.2.36,5.74,5.74,0,0,0-1.09.59A6.18,6.18,0,0,0,3.35,3.93,6.06,6.06,0,0,0,3,5.12a5.67,5.67,0,0,0-.13,1.24A5.74,5.74,0,0,0,3,7.6a6.5,6.5,0,0,0,.36,1.19,6.8,6.8,0,0,0,.58,1.1,7.42,7.42,0,0,0,.49.62A9.19,9.19,0,0,0,0,18.36a1,1,0,0,0,2,0,7.21,7.21,0,0,1,4.08-6.48,5.85,5.85,0,0,0,.71.35A6.06,6.06,0,0,0,8,12.59a6.36,6.36,0,0,0,1.24.12,6.32,6.32,0,0,0,2.43-.48,6.53,6.53,0,0,0,.7-.35,7.2,7.2,0,0,1,4.08,6.48,1,1,0,0,0,2,0A9.21,9.21,0,0,0,14,10.51Zm-.53-3.3a4.84,4.84,0,0,1-.25.82,5.4,5.4,0,0,1-.4.75,4.28,4.28,0,0,1-.55.66,4.78,4.78,0,0,1-.65.54,4.6,4.6,0,0,1-.76.4,4.73,4.73,0,0,1-.81.25,4.42,4.42,0,0,1-1.7,0,4.58,4.58,0,0,1-.82-.25A4.15,4.15,0,0,1,6.8,10a3.51,3.51,0,0,1-.56-.46.39.39,0,0,1-.1-.08,4.86,4.86,0,0,1-.54-.66A4.56,4.56,0,0,1,5.19,8,4.8,4.8,0,0,1,5,7.21a4.09,4.09,0,0,1-.09-.85A4,4,0,0,1,5,5.51a4.8,4.8,0,0,1,.24-.82,4.56,4.56,0,0,1,.41-.75,3.8,3.8,0,0,1,.54-.66,4.32,4.32,0,0,1,.66-.54,3.6,3.6,0,0,1,.75-.4,3.89,3.89,0,0,1,.82-.25A4,4,0,0,1,9.22,2a4.17,4.17,0,0,1,.85.09,4,4,0,0,1,.81.25,4.23,4.23,0,0,1,.76.4,4.78,4.78,0,0,1,.65.54,3.86,3.86,0,0,1,.55.66,5.4,5.4,0,0,1,.4.75,4.84,4.84,0,0,1,.25.82,4.56,4.56,0,0,1,0,1.7Z"/></g></g></svg>